External Loads File
version=1
nRows=47
nColumns=13
Range=5.000000e-03-10 seconds
endheader
time 	forceRightX 	forceRightY 	forceRightZ 	pointRightX 	pointRightY 	pointRightZ 	forceLeftX 	forceLeftY 	forceLeftZ 	pointLeftX 	pointLeftY 	pointLeftZ 		
0.005000 -7.074014 340.398664 -0.000000 0.338577 0.489951 -0.112906 -11.276024 405.020403 -0.000000 0.178217 0.181696 -0.355062
0.010000 -7.195758 339.926697 -0.000000 0.338652 0.489879 -0.112902 -11.348114 403.485763 -0.000000 0.178186 0.181739 -0.355056
0.015000 -7.259470 339.528372 -0.000000 0.338702 0.489826 -0.112908 -11.384632 402.028278 -0.000000 0.178149 0.181793 -0.355081
0.020000 -8.286969 339.228200 -0.000000 0.338751 0.489877 -0.112913 -12.650849 400.649331 -0.000000 0.178428 0.180142 -0.354959
0.025000 -7.015484 339.117361 -0.000000 0.338814 0.489894 -0.112996 -11.323917 399.488961 -0.000000 0.177997 0.181785 -0.355853
0.030000 -6.117713 339.118225 -0.000000 0.338797 0.489857 -0.112942 -10.564383 398.468175 -0.000000 0.177303 0.181844 -0.356184
0.035000 -5.691092 339.200796 -0.000000 0.338800 0.489854 -0.112966 -10.451932 397.603180 -0.000000 0.177295 0.181858 -0.356174
0.040000 -5.190470 339.340784 -0.000000 0.338800 0.489873 -0.112967 -10.304478 396.917513 -0.000000 0.177306 0.181851 -0.356177
0.045000 -4.618491 339.505055 -0.000000 0.338781 0.489885 -0.112979 -10.100684 396.389041 -0.000000 0.177320 0.181852 -0.356182
0.050000 -4.026447 339.659993 -0.000000 0.338758 0.489931 -0.112996 -9.887806 395.968941 -0.000000 0.177337 0.181845 -0.356188
0.055000 -3.435736 339.765760 -0.000000 0.338736 0.489969 -0.113006 -9.666808 395.611341 -0.000000 0.177358 0.181823 -0.356175
0.060000 -2.902616 339.774500 -0.000000 0.338706 0.489993 -0.113019 -9.457260 395.290724 -0.000000 0.177397 0.181812 -0.356166
0.065000 -2.882168 339.641464 -0.000000 0.338671 0.490057 -0.113027 -9.734472 394.994832 -0.000000 0.177892 0.181780 -0.355787
0.070000 -2.878132 339.346524 -0.000000 0.338643 0.490093 -0.113031 -9.881328 394.758297 -0.000000 0.178296 0.181740 -0.355406
0.075000 -2.386762 338.877863 -0.000000 0.338601 0.490142 -0.113013 -9.293158 394.617937 -0.000000 0.177983 0.181700 -0.355740
0.080000 -2.338000 338.215333 -0.000000 0.338559 0.490191 -0.113017 -9.052837 394.549234 -0.000000 0.178048 0.181658 -0.355715
0.085000 -2.377906 337.368677 -0.000000 0.338512 0.490243 -0.113014 -8.773876 394.544076 -0.000000 0.178103 0.181619 -0.355700
0.090000 -2.510311 336.384662 -0.000000 0.338464 0.490292 -0.113007 -8.511571 394.579374 -0.000000 0.178201 0.181567 -0.355676
0.095000 -2.641724 335.335465 -0.000000 0.338409 0.490357 -0.112990 -8.212975 394.631758 -0.000000 0.178276 0.181506 -0.355665
0.100000 -2.745364 334.277392 -0.000000 0.338356 0.490422 -0.113003 -7.883338 394.660968 -0.000000 0.178362 0.181448 -0.355628
0.105000 -2.810282 333.237890 -0.000000 0.338297 0.490481 -0.112997 -7.523855 394.611610 -0.000000 0.178449 0.181393 -0.355627
0.110000 -2.867555 332.236873 -0.000000 0.338243 0.490610 -0.112992 -7.182411 394.429277 -0.000000 0.178554 0.181352 -0.355624
0.115000 -2.868179 331.300450 -0.000000 0.338187 0.490696 -0.112989 -6.821477 394.077478 -0.000000 0.178653 0.181296 -0.355598
0.120000 -2.830129 330.446696 -0.000000 0.338126 0.490762 -0.112974 -6.481946 393.541434 -0.000000 0.178767 0.181252 -0.355581
0.125000 -2.755778 329.674314 -0.000000 0.338065 0.490849 -0.112965 -6.175162 392.833276 -0.000000 0.178868 0.181196 -0.355567
0.130000 -2.629548 328.969680 -0.000000 0.337999 0.490918 -0.112952 -5.890036 391.989429 -0.000000 0.178969 0.181157 -0.355571
0.135000 -2.467999 328.318744 -0.000000 0.337934 0.490991 -0.112952 -5.660838 391.056666 -0.000000 0.179083 0.181119 -0.355559
0.140000 -2.237326 327.708256 -0.000000 0.337873 0.491058 -0.112951 -5.456601 390.074514 -0.000000 0.179171 0.181064 -0.355563
0.145000 -1.993059 327.124300 -0.000000 0.337797 0.491143 -0.112948 -5.340111 389.061575 -0.000000 0.179280 0.181030 -0.355530
0.150000 -1.736013 326.566501 -0.000000 0.337715 0.491202 -0.112943 -5.306507 388.024752 -0.000000 0.179415 0.180976 -0.355535
0.155000 -1.462977 326.059042 -0.000000 0.337633 0.491268 -0.112929 -5.346834 386.973918 -0.000000 0.179565 0.180905 -0.355525
0.160000 -1.116666 325.636086 -0.000000 0.337542 0.491333 -0.112929 -5.379005 385.921397 -0.000000 0.179679 0.180862 -0.355531
0.165000 -1.084210 325.309999 -0.000000 0.337454 0.491400 -0.112913 -5.838035 384.855568 -0.000000 0.180203 0.180811 -0.355148
0.170000 -0.686017 325.064248 -0.000000 0.337383 0.491500 -0.112921 -5.899218 383.766861 -0.000000 0.180299 0.180749 -0.355139
0.175000 -0.275269 324.855654 -0.000000 0.337297 0.491565 -0.112917 -5.968716 382.635625 -0.000000 0.180386 0.180700 -0.355151
0.180000 0.124597 324.634835 -0.000000 0.337211 0.491608 -0.112917 -6.065321 381.470530 -0.000000 0.180485 0.180666 -0.355156
0.185000 0.502884 324.361501 -0.000000 0.337120 0.491646 -0.112918 -6.195626 380.297131 -0.000000 0.180572 0.180620 -0.355149
0.190000 0.880106 324.018326 -0.000000 0.337038 0.491679 -0.112909 -6.329365 379.147921 -0.000000 0.180649 0.180599 -0.355155
0.195000 1.595088 323.616245 -0.000000 0.336951 0.491695 -0.112911 -6.058603 378.066193 -0.000000 0.180297 0.180599 -0.355547
0.200000 1.896646 323.194088 -0.000000 0.336858 0.491728 -0.112911 -6.240924 377.082765 -0.000000 0.180374 0.180567 -0.355554
0.205000 2.567677 322.781795 -0.000000 0.336782 0.491741 -0.112925 -5.931820 376.262491 -0.000000 0.179993 0.180536 -0.355889
0.210000 2.807114 322.398658 -0.000000 0.336689 0.491757 -0.112915 -6.030371 375.630133 -0.000000 0.180060 0.180513 -0.355884
0.215000 2.995972 322.048227 -0.000000 0.336611 0.491763 -0.112909 -6.067736 375.208145 -0.000000 0.180121 0.180470 -0.355885
0.220000 3.110394 321.744488 -0.000000 0.336534 0.491795 -0.112919 -6.065262 374.989988 -0.000000 0.180165 0.180429 -0.355887
0.225000 3.163637 321.499171 -0.000000 0.336468 0.491796 -0.112930 -6.005954 374.965215 -0.000000 0.180213 0.180387 -0.355898
0.230000 3.149911 321.304009 -0.000000 0.336400 0.491813 -0.112944 -5.889826 375.118130 -0.000000 0.180249 0.180370 -0.355903
0.235000 3.078947 321.127657 -0.000000 0.336354 0.491816 -0.112931 -5.702797 375.411134 -0.000000 0.180284 0.180347 -0.355897
